<svg xmlns="http://www.w3.org/2000/svg" xmlns:xlink="http://www.w3.org/1999/xlink" width="500" zoomAndPan="magnify" viewBox="0 0 375 161.249994" height="215" preserveAspectRatio="xMidYMid meet" version="1.0"><defs><g/><clipPath id="4f7c49dd1b"><path d="M 148.628906 10 L 176 10 L 176 49 L 148.628906 49 Z M 148.628906 10 " clip-rule="nonzero"/></clipPath><clipPath id="fa0374c3c7"><path d="M 173 0.078125 L 199 0.078125 L 199 59 L 173 59 Z M 173 0.078125 " clip-rule="nonzero"/></clipPath><clipPath id="faa8aca6bb"><path d="M 173 0.078125 L 200 0.078125 L 200 59.054688 L 173 59.054688 Z M 173 0.078125 " clip-rule="nonzero"/></clipPath></defs><path fill="#03fa6e" d="M 172.417969 48.164062 C 172.003906 48.164062 171.589844 48.023438 171.265625 47.757812 L 150.179688 31.042969 C 149.726562 30.683594 149.464844 30.144531 149.464844 29.566406 C 149.464844 28.984375 149.726562 28.449219 150.175781 28.085938 L 171.265625 11.375 C 171.589844 11.109375 172.003906 10.96875 172.417969 10.96875 C 172.996094 10.96875 173.53125 11.230469 173.886719 11.6875 C 174.195312 12.082031 174.332031 12.574219 174.273438 13.074219 C 174.214844 13.574219 173.964844 14.019531 173.574219 14.328125 L 154.355469 29.566406 L 173.574219 44.800781 C 173.964844 45.113281 174.214844 45.558594 174.273438 46.058594 C 174.332031 46.558594 174.195312 47.046875 173.886719 47.445312 C 173.53125 47.898438 172.996094 48.164062 172.417969 48.164062 " fill-opacity="1" fill-rule="nonzero"/><g clip-path="url(#4f7c49dd1b)"><path fill="#03fa6e" d="M 172.417969 10.167969 C 171.824219 10.167969 171.242188 10.371094 170.773438 10.742188 L 149.6875 27.457031 C 149.039062 27.972656 148.671875 28.738281 148.671875 29.566406 C 148.671875 30.394531 149.042969 31.164062 149.6875 31.675781 L 170.773438 48.390625 C 171.238281 48.757812 171.824219 48.964844 172.417969 48.964844 C 173.242188 48.964844 174.007812 48.589844 174.511719 47.9375 C 174.953125 47.378906 175.148438 46.675781 175.066406 45.964844 C 174.980469 45.253906 174.625 44.613281 174.066406 44.171875 L 155.640625 29.566406 L 174.066406 14.960938 C 174.625 14.515625 174.980469 13.878906 175.066406 13.167969 C 175.148438 12.457031 174.953125 11.753906 174.511719 11.191406 C 174.007812 10.539062 173.238281 10.167969 172.417969 10.167969 Z M 172.417969 11.769531 C 172.738281 11.769531 173.050781 11.910156 173.261719 12.179688 C 173.628906 12.652344 173.546875 13.332031 173.082031 13.699219 L 153.066406 29.566406 L 173.082031 45.433594 C 173.546875 45.800781 173.628906 46.480469 173.261719 46.949219 C 173.050781 47.21875 172.738281 47.363281 172.417969 47.363281 C 172.1875 47.363281 171.953125 47.289062 171.757812 47.128906 L 150.667969 30.414062 C 150.414062 30.210938 150.261719 29.894531 150.261719 29.566406 C 150.261719 29.234375 150.414062 28.921875 150.667969 28.71875 L 171.757812 12 C 171.949219 11.84375 172.1875 11.769531 172.417969 11.769531 " fill-opacity="1" fill-rule="nonzero"/></g><path fill="#03fa6e" d="M 200.242188 48.164062 C 199.664062 48.164062 199.128906 47.898438 198.769531 47.445312 C 198.132812 46.628906 198.273438 45.445312 199.085938 44.800781 L 218.304688 29.566406 L 199.085938 14.328125 C 198.273438 13.6875 198.132812 12.5 198.769531 11.6875 C 199.128906 11.230469 199.664062 10.96875 200.242188 10.96875 C 200.65625 10.96875 201.066406 11.109375 201.394531 11.375 L 222.484375 28.085938 C 222.933594 28.449219 223.191406 28.984375 223.191406 29.566406 C 223.191406 30.144531 222.933594 30.683594 222.480469 31.042969 L 201.394531 47.757812 C 201.066406 48.023438 200.65625 48.164062 200.242188 48.164062 " fill-opacity="1" fill-rule="nonzero"/><path fill="#03fa6e" d="M 200.242188 10.167969 C 199.417969 10.167969 198.65625 10.539062 198.148438 11.191406 C 197.238281 12.355469 197.4375 14.042969 198.59375 14.960938 L 217.015625 29.566406 L 198.59375 44.171875 C 197.4375 45.085938 197.238281 46.777344 198.148438 47.9375 C 198.65625 48.589844 199.417969 48.964844 200.242188 48.964844 C 200.835938 48.964844 201.417969 48.757812 201.886719 48.390625 L 222.972656 31.675781 C 223.617188 31.164062 223.988281 30.394531 223.988281 29.566406 C 223.988281 28.738281 223.617188 27.972656 222.976562 27.457031 L 201.886719 10.742188 C 201.421875 10.371094 200.835938 10.167969 200.242188 10.167969 Z M 200.242188 11.769531 C 200.472656 11.769531 200.707031 11.84375 200.902344 12 L 221.988281 28.71875 C 222.246094 28.921875 222.398438 29.234375 222.398438 29.566406 C 222.398438 29.894531 222.246094 30.210938 221.988281 30.414062 L 200.902344 47.128906 C 200.707031 47.289062 200.472656 47.363281 200.242188 47.363281 C 199.921875 47.363281 199.605469 47.21875 199.398438 46.949219 C 199.03125 46.480469 199.109375 45.800781 199.574219 45.433594 L 219.589844 29.566406 L 199.574219 13.699219 C 199.109375 13.332031 199.03125 12.652344 199.398438 12.179688 C 199.605469 11.910156 199.925781 11.769531 200.242188 11.769531 " fill-opacity="1" fill-rule="nonzero"/><g clip-path="url(#fa0374c3c7)"><path fill="#03fa6e" d="M 175.851562 58.25 C 175.617188 58.25 175.394531 58.203125 175.175781 58.121094 C 174.710938 57.9375 174.34375 57.585938 174.144531 57.128906 C 173.9375 56.667969 173.929688 56.15625 174.109375 55.6875 L 194.703125 2.085938 C 194.980469 1.367188 195.679688 0.882812 196.441406 0.882812 C 196.675781 0.882812 196.902344 0.929688 197.121094 1.011719 C 198.078125 1.386719 198.558594 2.480469 198.183594 3.445312 L 177.59375 57.046875 C 177.316406 57.765625 176.613281 58.25 175.851562 58.25 " fill-opacity="1" fill-rule="nonzero"/></g><g clip-path="url(#faa8aca6bb)"><path fill="#03fa6e" d="M 196.441406 0.0820312 C 195.351562 0.0820312 194.351562 0.773438 193.960938 1.796875 L 173.367188 55.398438 C 173.113281 56.066406 173.128906 56.792969 173.414062 57.453125 C 173.703125 58.105469 174.226562 58.613281 174.890625 58.867188 C 175.199219 58.988281 175.519531 59.050781 175.851562 59.050781 C 176.941406 59.050781 177.941406 58.363281 178.335938 57.335938 L 198.925781 3.734375 C 199.457031 2.355469 198.773438 0.796875 197.402344 0.265625 C 197.097656 0.140625 196.773438 0.0820312 196.441406 0.0820312 Z M 196.441406 1.683594 C 196.574219 1.683594 196.703125 1.710938 196.832031 1.757812 C 197.382812 1.972656 197.65625 2.597656 197.445312 3.15625 L 176.851562 56.757812 C 176.6875 57.183594 176.28125 57.449219 175.851562 57.449219 C 175.722656 57.449219 175.589844 57.425781 175.464844 57.375 C 174.910156 57.160156 174.636719 56.53125 174.851562 55.976562 L 195.441406 2.375 C 195.609375 1.945312 196.011719 1.683594 196.441406 1.683594 " fill-opacity="1" fill-rule="nonzero"/></g><g fill="#004aad" fill-opacity="1"><g transform="translate(18.213527, 106.006224)"><g><path d="M 17.523438 -6.003906 L 11.03125 -30.433594 L 2.0625 -30.433594 L 2.0625 0 L 7.917969 0 L 7.917969 -25.402344 L 14.597656 0 L 20.414062 0 L 27.054688 -25.367188 L 27.054688 0 L 32.945312 0 L 32.945312 -30.433594 L 23.976562 -30.433594 Z M 17.523438 -6.003906 "/></g></g></g><g fill="#004aad" fill-opacity="1"><g transform="translate(51.797461, 106.006224)"><g><path d="M 12.082031 -22.289062 C 9.34375 -22.289062 6.152344 -21.6875 4.539062 -21.050781 L 3.226562 -15.761719 C 5.589844 -16.699219 8.667969 -17.261719 10.808594 -17.261719 C 14.109375 -17.261719 15.984375 -16.285156 15.984375 -13.582031 L 15.984375 -12.796875 C 14.222656 -13.019531 12.683594 -13.097656 11.105469 -13.097656 C 5.214844 -13.097656 1.5 -10.996094 1.5 -6.417969 L 1.5 -6.339844 C 1.5 -1.277344 5.589844 0.601562 12.195312 0.601562 C 15.121094 0.601562 18.988281 0.1875 21.953125 -0.449219 L 21.953125 -13.769531 C 21.953125 -20.148438 18.050781 -22.289062 12.082031 -22.289062 Z M 7.617188 -6.714844 C 7.617188 -8.628906 9.417969 -9.304688 12.421875 -9.304688 C 13.359375 -9.304688 14.785156 -9.195312 15.984375 -9.003906 L 15.984375 -4.351562 C 14.746094 -4.164062 13.433594 -4.050781 12.421875 -4.050781 C 9.382812 -4.050781 7.617188 -4.804688 7.617188 -6.640625 Z M 7.617188 -6.714844 "/></g></g></g><g fill="#004aad" fill-opacity="1"><g transform="translate(74.274313, 106.006224)"><g><path d="M 18.5 0 L 18.5 -5.515625 L 14.335938 -5.515625 C 11.78125 -5.515625 10.621094 -6.492188 10.621094 -8.894531 L 10.621094 -16.058594 L 18.460938 -16.058594 L 18.460938 -21.539062 L 10.621094 -21.539062 L 10.621094 -28.144531 L 4.652344 -28.144531 L 4.652344 -21.539062 L 0.863281 -21.539062 L 0.863281 -16.058594 L 4.652344 -16.058594 L 4.652344 -7.015625 C 4.652344 -2.328125 6.527344 0 11.671875 0 Z M 18.5 0 "/></g></g></g><g fill="#004aad" fill-opacity="1"><g transform="translate(92.923719, 106.006224)"><g><path d="M 12.007812 -22.402344 C 10.996094 -22.402344 9.570312 -22.289062 7.992188 -22.140625 L 7.992188 -30.433594 L 2.027344 -30.433594 L 2.027344 0 L 7.992188 0 L 7.992188 -16.699219 C 9.34375 -16.921875 10.769531 -17.074219 11.78125 -17.074219 C 14.558594 -17.074219 16.023438 -16.058594 16.023438 -13.359375 L 16.023438 0 L 21.988281 0 L 21.988281 -14.070312 C 21.988281 -20.527344 17.335938 -22.402344 12.007812 -22.402344 Z M 12.007812 -22.402344 "/></g></g></g><g fill="#004aad" fill-opacity="1"><g transform="translate(115.513134, 106.006224)"><g><path d="M 23.828125 -10.054688 C 23.828125 -17.75 19.625 -22.402344 12.71875 -22.402344 C 5.890625 -22.402344 1.5 -17.671875 1.5 -10.957031 L 1.5 -10.917969 C 1.5 -4.089844 6.191406 0.5625 13.433594 0.5625 C 17.636719 0.5625 20.601562 -0.75 22.777344 -2.101562 L 20.1875 -6.714844 C 18.613281 -5.589844 16.324219 -4.652344 13.695312 -4.652344 C 10.433594 -4.652344 8.292969 -6.753906 7.691406 -9.53125 L 23.828125 -9.53125 Z M 12.683594 -17.5625 C 15.574219 -17.5625 17.296875 -15.683594 17.75 -13.207031 L 7.730469 -13.207031 C 8.292969 -15.683594 10.09375 -17.5625 12.683594 -17.5625 Z M 12.683594 -17.5625 "/></g></g></g><g fill="#004aad" fill-opacity="1"><g transform="translate(139.453415, 106.006224)"><g><path d="M 12.007812 0.601562 C 14.183594 0.601562 18.425781 0.113281 21.988281 -0.523438 L 21.988281 -21.539062 L 16.058594 -21.539062 L 16.058594 -4.878906 C 14.671875 -4.617188 13.320312 -4.503906 12.269531 -4.503906 C 9.457031 -4.503906 7.992188 -5.476562 7.992188 -8.21875 L 7.992188 -21.539062 L 2.027344 -21.539062 L 2.027344 -7.730469 C 2.027344 -1.277344 6.679688 0.601562 12.007812 0.601562 Z M 12.007812 0.601562 "/></g></g></g><g fill="#004aad" fill-opacity="1"><g transform="translate(162.080348, 106.006224)"><g><path d="M 10.996094 0.488281 C 17.410156 0.488281 20.601562 -1.839844 20.601562 -6.492188 C 20.601562 -9.90625 18.347656 -12.007812 13.507812 -13.359375 L 11.96875 -13.769531 C 9.382812 -14.523438 8.332031 -15.046875 8.332031 -16.136719 C 8.332031 -17.335938 9.605469 -17.75 11.78125 -17.75 C 13.621094 -17.75 16.210938 -17.335938 18.125 -16.324219 L 19.851562 -20.488281 C 17.636719 -21.652344 14.335938 -22.363281 11.070312 -22.363281 C 5.476562 -22.363281 2.328125 -19.925781 2.328125 -15.949219 C 2.328125 -12.382812 4.351562 -10.28125 8.855469 -9.082031 L 10.882812 -8.554688 C 14.035156 -7.691406 14.746094 -7.203125 14.746094 -6.042969 C 14.746094 -4.464844 13.019531 -4.128906 10.46875 -4.128906 C 8.292969 -4.128906 5.667969 -4.617188 3.152344 -5.703125 L 1.539062 -1.386719 C 4.617188 -0.113281 7.617188 0.488281 10.996094 0.488281 Z M 10.996094 0.488281 "/></g></g></g><g fill="#004aad" fill-opacity="1"><g transform="translate(182.756046, 106.006224)"><g/></g></g><g fill="#004aad" fill-opacity="1"><g transform="translate(187.671679, 106.006224)"><g><path d="M 8.628906 0.488281 C 14.109375 0.488281 17.824219 -2.550781 17.824219 -9.269531 L 17.824219 -30.433594 L 11.894531 -30.433594 L 11.894531 -9.792969 C 11.894531 -6.714844 10.09375 -5.328125 7.46875 -5.328125 C 5.402344 -5.328125 3.152344 -6.265625 1.539062 -7.390625 L 0.0742188 -2.027344 C 1.726562 -0.714844 4.691406 0.488281 8.628906 0.488281 Z M 8.628906 0.488281 "/></g></g></g><g fill="#004aad" fill-opacity="1"><g transform="translate(206.095929, 106.006224)"><g><path d="M 5.515625 0.414062 C 7.429688 0.414062 9.003906 -0.488281 9.003906 -2.363281 C 9.003906 -4.050781 7.578125 -5.101562 5.515625 -5.101562 C 3.488281 -5.101562 2.027344 -4.050781 2.027344 -2.363281 C 2.027344 -0.488281 3.601562 0.414062 5.515625 0.414062 Z M 5.515625 0.414062 "/></g></g></g><g fill="#004aad" fill-opacity="1"><g transform="translate(215.739579, 106.006224)"><g/></g></g><g fill="#004aad" fill-opacity="1"><g transform="translate(220.655213, 106.006224)"><g><path d="M 12.609375 0.488281 C 19.925781 0.488281 24.464844 -2.8125 24.464844 -8.519531 L 24.464844 -8.59375 C 24.464844 -13.769531 21.726562 -15.835938 13.996094 -18.238281 C 9.90625 -19.550781 8.292969 -20.449219 8.292969 -22.550781 L 8.292969 -22.589844 C 8.292969 -24.351562 9.945312 -25.703125 13.433594 -25.703125 C 16.398438 -25.703125 19.398438 -24.839844 21.613281 -23.378906 L 23.867188 -28.292969 C 21.277344 -29.980469 17.335938 -30.957031 13.394531 -30.957031 C 6.492188 -30.957031 2.363281 -27.542969 2.363281 -22.476562 L 2.363281 -22.402344 C 2.363281 -17.375 4.652344 -15.007812 11.292969 -13.019531 C 16.734375 -11.332031 18.5 -10.507812 18.5 -8.480469 L 18.5 -8.441406 C 18.5 -6.117188 16.058594 -4.804688 12.382812 -4.804688 C 9.082031 -4.804688 5.890625 -5.703125 3.640625 -7.203125 L 1.386719 -2.328125 C 4.089844 -0.523438 8.253906 0.488281 12.609375 0.488281 Z M 12.609375 0.488281 "/></g></g></g><g fill="#004aad" fill-opacity="1"><g transform="translate(245.383494, 106.006224)"><g><path d="M 12.082031 -22.289062 C 9.34375 -22.289062 6.152344 -21.6875 4.539062 -21.050781 L 3.226562 -15.761719 C 5.589844 -16.699219 8.667969 -17.261719 10.808594 -17.261719 C 14.109375 -17.261719 15.984375 -16.285156 15.984375 -13.582031 L 15.984375 -12.796875 C 14.222656 -13.019531 12.683594 -13.097656 11.105469 -13.097656 C 5.214844 -13.097656 1.5 -10.996094 1.5 -6.417969 L 1.5 -6.339844 C 1.5 -1.277344 5.589844 0.601562 12.195312 0.601562 C 15.121094 0.601562 18.988281 0.1875 21.953125 -0.449219 L 21.953125 -13.769531 C 21.953125 -20.148438 18.050781 -22.289062 12.082031 -22.289062 Z M 7.617188 -6.714844 C 7.617188 -8.628906 9.417969 -9.304688 12.421875 -9.304688 C 13.359375 -9.304688 14.785156 -9.195312 15.984375 -9.003906 L 15.984375 -4.351562 C 14.746094 -4.164062 13.433594 -4.050781 12.421875 -4.050781 C 9.382812 -4.050781 7.617188 -4.804688 7.617188 -6.640625 Z M 7.617188 -6.714844 "/></g></g></g><g fill="#004aad" fill-opacity="1"><g transform="translate(267.860342, 106.006224)"><g><path d="M 7.992188 0 L 7.992188 -16.699219 C 9.382812 -16.921875 10.730469 -17.074219 11.78125 -17.074219 C 14.558594 -17.074219 16.058594 -16.058594 16.058594 -13.359375 L 16.058594 0 L 21.988281 0 L 21.988281 -14.070312 C 21.988281 -20.527344 17.375 -22.402344 12.046875 -22.402344 C 9.867188 -22.402344 5.628906 -21.914062 2.027344 -21.277344 L 2.027344 0 Z M 7.992188 0 "/></g></g></g><g fill="#004aad" fill-opacity="1"><g transform="translate(290.487275, 106.006224)"><g><path d="M 18.5 0 L 18.5 -5.515625 L 14.335938 -5.515625 C 11.78125 -5.515625 10.621094 -6.492188 10.621094 -8.894531 L 10.621094 -16.058594 L 18.460938 -16.058594 L 18.460938 -21.539062 L 10.621094 -21.539062 L 10.621094 -28.144531 L 4.652344 -28.144531 L 4.652344 -21.539062 L 0.863281 -21.539062 L 0.863281 -16.058594 L 4.652344 -16.058594 L 4.652344 -7.015625 C 4.652344 -2.328125 6.527344 0 11.671875 0 Z M 18.5 0 "/></g></g></g><g fill="#004aad" fill-opacity="1"><g transform="translate(309.136674, 106.006224)"><g><path d="M 13.472656 0.601562 C 20.527344 0.601562 25.441406 -4.277344 25.441406 -10.917969 L 25.441406 -10.957031 C 25.441406 -17.5625 20.527344 -22.402344 13.472656 -22.402344 C 6.417969 -22.402344 1.539062 -17.5625 1.539062 -10.957031 L 1.539062 -10.917969 C 1.539062 -4.277344 6.453125 0.601562 13.472656 0.601562 Z M 13.472656 -4.726562 C 9.90625 -4.726562 7.503906 -7.429688 7.503906 -10.917969 L 7.503906 -10.996094 C 7.503906 -14.445312 9.867188 -17.074219 13.472656 -17.074219 C 17.109375 -17.074219 19.4375 -14.445312 19.4375 -10.996094 L 19.4375 -10.917969 C 19.4375 -7.429688 17.074219 -4.726562 13.472656 -4.726562 Z M 13.472656 -4.726562 "/></g></g></g><g fill="#004aad" fill-opacity="1"><g transform="translate(334.65297, 106.006224)"><g><path d="M 10.996094 0.488281 C 17.410156 0.488281 20.601562 -1.839844 20.601562 -6.492188 C 20.601562 -9.90625 18.347656 -12.007812 13.507812 -13.359375 L 11.96875 -13.769531 C 9.382812 -14.523438 8.332031 -15.046875 8.332031 -16.136719 C 8.332031 -17.335938 9.605469 -17.75 11.78125 -17.75 C 13.621094 -17.75 16.210938 -17.335938 18.125 -16.324219 L 19.851562 -20.488281 C 17.636719 -21.652344 14.335938 -22.363281 11.070312 -22.363281 C 5.476562 -22.363281 2.328125 -19.925781 2.328125 -15.949219 C 2.328125 -12.382812 4.351562 -10.28125 8.855469 -9.082031 L 10.882812 -8.554688 C 14.035156 -7.691406 14.746094 -7.203125 14.746094 -6.042969 C 14.746094 -4.464844 13.019531 -4.128906 10.46875 -4.128906 C 8.292969 -4.128906 5.667969 -4.617188 3.152344 -5.703125 L 1.539062 -1.386719 C 4.617188 -0.113281 7.617188 0.488281 10.996094 0.488281 Z M 10.996094 0.488281 "/></g></g></g><g fill="#03fa6e" fill-opacity="1"><g transform="translate(130.044477, 152.583187)"><g><path d="M 5.078125 0 L 5.078125 -8.300781 L 13.449219 -8.300781 L 13.449219 -11.644531 L 5.078125 -11.644531 L 5.078125 -15.976562 L 14.292969 -15.976562 L 14.292969 -19.515625 L 1.324219 -19.515625 L 1.324219 0 Z M 5.078125 0 "/></g></g></g><g fill="#03fa6e" fill-opacity="1"><g transform="translate(144.235617, 152.583187)"><g><path d="M 7.699219 0.386719 C 9.09375 0.386719 11.816406 0.0703125 14.101562 -0.335938 L 14.101562 -13.8125 L 10.296875 -13.8125 L 10.296875 -3.128906 C 9.410156 -2.960938 8.542969 -2.886719 7.867188 -2.886719 C 6.0625 -2.886719 5.125 -3.511719 5.125 -5.269531 L 5.125 -13.8125 L 1.300781 -13.8125 L 1.300781 -4.957031 C 1.300781 -0.816406 4.28125 0.386719 7.699219 0.386719 Z M 7.699219 0.386719 "/></g></g></g><g fill="#03fa6e" fill-opacity="1"><g transform="translate(158.739452, 152.583187)"><g><path d="M 5.125 0 L 5.125 -19.515625 L 1.300781 -19.515625 L 1.300781 0 Z M 5.125 0 "/></g></g></g><g fill="#03fa6e" fill-opacity="1"><g transform="translate(164.247256, 152.583187)"><g><path d="M 5.125 0 L 5.125 -19.515625 L 1.300781 -19.515625 L 1.300781 0 Z M 5.125 0 "/></g></g></g><g fill="#03fa6e" fill-opacity="1"><g transform="translate(169.75506, 152.583187)"><g/></g></g><g fill="#03fa6e" fill-opacity="1"><g transform="translate(172.905619, 152.583187)"><g><path d="M 8.085938 0.3125 C 12.777344 0.3125 15.6875 -1.804688 15.6875 -5.460938 L 15.6875 -5.511719 C 15.6875 -8.832031 13.933594 -10.152344 8.976562 -11.695312 C 6.351562 -12.535156 5.316406 -13.113281 5.316406 -14.460938 L 5.316406 -14.484375 C 5.316406 -15.617188 6.375 -16.484375 8.613281 -16.484375 C 10.515625 -16.484375 12.441406 -15.929688 13.859375 -14.992188 L 15.304688 -18.144531 C 13.644531 -19.226562 11.117188 -19.851562 8.589844 -19.851562 C 4.164062 -19.851562 1.515625 -17.660156 1.515625 -14.414062 L 1.515625 -14.363281 C 1.515625 -11.140625 2.984375 -9.625 7.242188 -8.347656 C 10.730469 -7.265625 11.863281 -6.738281 11.863281 -5.4375 L 11.863281 -5.414062 C 11.863281 -3.921875 10.296875 -3.078125 7.941406 -3.078125 C 5.824219 -3.078125 3.777344 -3.65625 2.335938 -4.621094 L 0.890625 -1.492188 C 2.621094 -0.335938 5.292969 0.3125 8.085938 0.3125 Z M 8.085938 0.3125 "/></g></g></g><g fill="#03fa6e" fill-opacity="1"><g transform="translate(188.756457, 152.583187)"><g><path d="M 11.863281 0 L 11.863281 -3.539062 L 9.191406 -3.539062 C 7.554688 -3.539062 6.808594 -4.164062 6.808594 -5.703125 L 6.808594 -10.296875 L 11.839844 -10.296875 L 11.839844 -13.8125 L 6.808594 -13.8125 L 6.808594 -18.046875 L 2.984375 -18.046875 L 2.984375 -13.8125 L 0.554688 -13.8125 L 0.554688 -10.296875 L 2.984375 -10.296875 L 2.984375 -4.5 C 2.984375 -1.492188 4.1875 0 7.484375 0 Z M 11.863281 0 "/></g></g></g><g fill="#03fa6e" fill-opacity="1"><g transform="translate(200.710623, 152.583187)"><g><path d="M 7.75 -14.292969 C 5.992188 -14.292969 3.945312 -13.90625 2.910156 -13.5 L 2.070312 -10.105469 C 3.585938 -10.707031 5.558594 -11.070312 6.929688 -11.070312 C 9.046875 -11.070312 10.25 -10.441406 10.25 -8.710938 L 10.25 -8.207031 C 9.121094 -8.347656 8.132812 -8.398438 7.121094 -8.398438 C 3.34375 -8.398438 0.960938 -7.050781 0.960938 -4.113281 L 0.960938 -4.066406 C 0.960938 -0.816406 3.585938 0.386719 7.820312 0.386719 C 9.695312 0.386719 12.175781 0.121094 14.078125 -0.289062 L 14.078125 -8.832031 C 14.078125 -12.921875 11.574219 -14.292969 7.75 -14.292969 Z M 4.882812 -4.308594 C 4.882812 -5.535156 6.039062 -5.96875 7.964844 -5.96875 C 8.566406 -5.96875 9.480469 -5.894531 10.25 -5.773438 L 10.25 -2.792969 C 9.457031 -2.671875 8.613281 -2.597656 7.964844 -2.597656 C 6.015625 -2.597656 4.882812 -3.078125 4.882812 -4.257812 Z M 4.882812 -4.308594 "/></g></g></g><g fill="#03fa6e" fill-opacity="1"><g transform="translate(215.118254, 152.583187)"><g><path d="M 8.46875 0.359375 C 10.128906 0.359375 11.933594 -0.046875 13.234375 -0.769531 L 11.742188 -3.609375 C 10.78125 -3.105469 9.792969 -2.816406 8.664062 -2.816406 C 6.207031 -2.816406 4.8125 -4.597656 4.8125 -6.976562 L 4.8125 -7.027344 C 4.8125 -9.433594 6.207031 -11.164062 8.664062 -11.164062 C 9.792969 -11.164062 10.804688 -10.851562 11.742188 -10.347656 L 13.257812 -13.1875 C 11.933594 -13.933594 10.128906 -14.363281 8.46875 -14.363281 C 3.921875 -14.363281 0.960938 -11.332031 0.960938 -7.027344 L 0.960938 -6.976562 C 0.960938 -2.648438 3.945312 0.359375 8.46875 0.359375 Z M 8.46875 0.359375 "/></g></g></g><g fill="#03fa6e" fill-opacity="1"><g transform="translate(228.034568, 152.583187)"><g><path d="M 5.125 -7.195312 L 5.125 -19.515625 L 1.324219 -19.515625 L 1.324219 0 L 5.125 0 L 5.125 -6.859375 L 5.246094 -7.027344 Z M 9.503906 -7.074219 L 14.414062 -13.8125 L 10.226562 -13.8125 L 5.246094 -7.027344 L 10.179688 0 L 14.652344 0 Z M 9.503906 -7.074219 "/></g></g></g></svg>